<svg width="190" height="185" viewBox="0 0 380 370" fill="none" xmlns="http://www.w3.org/2000/svg">
<path d="M77.6188 159.161C81.3476 151.956 91.6524 151.956 95.3812 159.161L153.857 272.154C157.302 278.81 152.471 286.75 144.976 286.75H28.0238C20.5291 286.75 15.6979 278.81 19.1426 272.154L77.6188 159.161Z" fill="#F6F8FF"/>
<path d="M285.619 159.161C289.348 151.956 299.652 151.956 303.381 159.161L361.857 272.154C365.302 278.81 360.471 286.75 352.976 286.75H236.024C228.529 286.75 223.698 278.81 227.143 272.154L285.619 159.161Z" fill="#F6F8FF"/>
<path d="M182.619 17.161C186.348 9.95589 196.652 9.95588 200.381 17.161L258.857 130.154C262.302 136.81 257.471 144.75 249.976 144.75H133.024C125.529 144.75 120.698 136.81 124.143 130.154L182.619 17.161Z" fill="#F6F8FF"/>
<path d="M198.521 276.141C195.488 281.696 187.512 281.696 184.479 276.141L129.979 176.334C127.068 171.003 130.926 164.5 137 164.5H246C252.074 164.5 255.932 171.003 253.021 176.334L198.521 276.141Z" fill="#F6F8FF"/>
<path d="M188.122 332.936C190.023 329.489 194.977 329.489 196.878 332.936L207.029 351.335C208.867 354.667 206.457 358.75 202.651 358.75H182.349C178.543 358.75 176.133 354.667 177.971 351.335L188.122 332.936Z" fill="#F6F8FF"/>
</svg>
