<?xml version="1.0" encoding="UTF-8" standalone="no"?>
<svg width="500" height="500" viewBox="0 0 500 500" fill="none" xmlns="http://www.w3.org/2000/svg">
    <path d="M136.619 250.161C140.348 242.956 150.652 242.956 154.381 250.161L212.857 363.154C216.302 369.81 211.471 377.75 203.976 377.75H87.0238C79.5291 377.75 74.6979 369.81 78.1426 363.154L136.619 250.161Z" fill="#60ABA8"/>
    <path d="M344.619 250.161C348.348 242.956 358.652 242.956 362.381 250.161L420.857 363.154C424.302 369.81 419.471 377.75 411.976 377.75H295.024C287.529 377.75 282.698 369.81 286.143 363.154L344.619 250.161Z" fill="#60ABA8"/>
    <path d="M241.619 108.161C245.348 100.956 255.652 100.956 259.381 108.161L317.857 221.154C321.302 227.81 316.471 235.75 308.976 235.75H192.024C184.529 235.75 179.698 227.81 183.143 221.154L241.619 108.161Z" fill="#60ABA8"/>
    <path d="M257.521 367.141C254.488 372.696 246.512 372.696 243.479 367.141L188.979 267.334C186.068 262.003 189.926 255.5 196 255.5H305C311.074 255.5 314.932 262.003 312.021 267.334L257.521 367.141Z" fill="#F6F8FF"/>
    <path d="M247.122 423.936C249.023 420.489 253.977 420.489 255.878 423.936L266.029 442.335C267.867 445.667 265.457 449.75 261.651 449.75H241.349C237.543 449.75 235.133 445.667 236.971 442.335L247.122 423.936Z" fill="#60ABA8"/>
</svg>